<svg width="110" height="117" viewBox="0 0 110 117" xmlns="http://www.w3.org/2000/svg"><g fill="#000" fill-opacity=".1" fill-rule="evenodd"><path d="M26 111c14.359 0 26-11.641 26-26s-11.641-26-26-26-26 11.641-26 26 11.641 26 26 26zm0-7c10.493 0 19-8.507 19-19s-8.507-19-19-19-19 8.507-19 19 8.507 19 19 19z" id="Oval-15"/><circle id="Oval-17" cx="26" cy="85" r="12"/><path d="M26 45c10.493 0 19-8.507 19-19s-8.507-19-19-19-19 8.507-19 19 8.507 19 19 19zm0-7c6.627 0 12-5.373 12-12s-5.373-12-12-12-12 5.373-12 12 5.373 12 12 12z" id="Oval-19"/><path d="M78 52c14.359 0 26-11.641 26-26s-11.641-26-26-26-26 11.641-26 26 11.641 26 26 26zm0-7c10.493 0 19-8.507 19-19s-8.507-19-19-19-19 8.507-19 19 8.507 19 19 19z"/><circle cx="78" cy="26" r="12"/><path d="M78 104c10.493 0 19-8.507 19-19s-8.507-19-19-19-19 8.507-19 19 8.507 19 19 19zm0-7c6.627 0 12-5.373 12-12s-5.373-12-12-12-12 5.373-12 12 5.373 12 12 12z"/></g></svg>