<?xml version="1.0" encoding="UTF-8" standalone="no"?>
<svg width="58px" height="58px" viewBox="0 0 58 58" version="1.1" xmlns="http://www.w3.org/2000/svg" xmlns:xlink="http://www.w3.org/1999/xlink" xmlns:sketch="http://www.bohemiancoding.com/sketch/ns">
    <!-- Generator: Sketch 3.0.2 (7799) - http://www.bohemiancoding.com/sketch -->
    <title>p03</title>
    <description>Created with Sketch.</description>
    <defs></defs>
    <g id="Page-1" stroke="none" stroke-width="1" fill="none" fill-rule="evenodd" sketch:type="MSPage">
        <g id="Group" sketch:type="MSLayerGroup" transform="translate(29.000000, 29.000000) rotate(-45.000000) translate(-29.000000, -29.000000) translate(-12.000000, -12.000000)" fill="#000000" opacity="0.151935634">
            <path d="M6.82121026e-13,41 L6.82121026e-13,82 L41,82 L41,41 L6.82121026e-13,41 Z M6,47 L6,76 L35,76 L35,47 L6,47 Z" id="Rectangle-3" sketch:type="MSShapeGroup"></path>
            <path d="M11,52 L11,71 L30,71 L30,52 L11,52 Z M16,57 L16,66 L25,66 L25,57 L16,57 Z" id="Rectangle-6" sketch:type="MSShapeGroup"></path>
            <path d="M6,6 L6,35 L35,35 L35,6 L6,6 Z M11,11 L11,30 L30,30 L30,11 L11,11 Z" id="Rectangle-10" sketch:type="MSShapeGroup"></path>
            <rect id="Rectangle-8" sketch:type="MSShapeGroup" x="16" y="16" width="9" height="9"></rect>
            <path d="M41,1.13686838e-13 L41,41 L82,41 L82,1.13686838e-13 L41,1.13686838e-13 Z M47,6 L47,35 L76,35 L76,6 L47,6 Z" id="Rectangle-3" sketch:type="MSShapeGroup"></path>
            <path d="M52,11 L52,30 L71,30 L71,11 L52,11 Z M57,16 L57,25 L66,25 L66,16 L57,16 Z" id="Rectangle-6" sketch:type="MSShapeGroup"></path>
            <path d="M47,47 L47,76 L76,76 L76,47 L47,47 Z M52,52 L52,71 L71,71 L71,52 L52,52 Z" id="Rectangle-10" sketch:type="MSShapeGroup"></path>
            <rect id="Rectangle-8" sketch:type="MSShapeGroup" x="57" y="57" width="9" height="9"></rect>
        </g>
    </g>
</svg>