<svg width="58" height="58" viewBox="0 0 58 58" xmlns="http://www.w3.org/2000/svg"><g fill="#000" opacity=".152" fill-rule="evenodd"><path d="M.013 57.987l28.987 28.987 28.987-28.987-28.987-28.987-28.987 28.987zm8.484 0l20.503 20.503 20.503-20.503-20.503-20.503-20.503 20.503z" id="Rectangle-3"/><path d="M15.567 57.987l13.433 13.433 13.433-13.433-13.433-13.433-13.433 13.433zm7.07 0l6.363 6.363 6.363-6.363-6.363-6.363-6.363 6.363z" id="Rectangle-6"/><path d="M-20.49 29l20.503 20.503 20.503-20.503-20.503-20.503-20.503 20.503zm7.07 0l13.433 13.433 13.433-13.433-13.433-13.433-13.433 13.433z" id="Rectangle-10"/><path id="Rectangle-8" d="M-6.35 29l6.363-6.363 6.363 6.363-6.363 6.363z"/><path d="M.013.013l28.987 28.987 28.987-28.987-28.987-28.987-28.987 28.987zm8.484 0l20.503 20.503 20.503-20.503-20.503-20.503-20.503 20.503z"/><path d="M15.567.013l13.433 13.433 13.433-13.433-13.433-13.433-13.433 13.433zm7.07 0l6.363 6.363 6.363-6.363-6.363-6.363-6.363 6.363z"/><path d="M37.484 29l20.503 20.503 20.503-20.503-20.503-20.503-20.503 20.503zm7.07 0l13.433 13.433 13.433-13.433-13.433-13.433-13.433 13.433z"/><path d="M51.624 29l6.363-6.363 6.363 6.363-6.363 6.363z"/></g></svg>