<?xml version="1.0" encoding="UTF-8" standalone="no"?>
<svg width="115px" height="120px" viewBox="0 0 115 120" version="1.1" xmlns="http://www.w3.org/2000/svg" xmlns:xlink="http://www.w3.org/1999/xlink" xmlns:sketch="http://www.bohemiancoding.com/sketch/ns">
    <!-- Generator: Sketch 3.0.2 (7799) - http://www.bohemiancoding.com/sketch -->
    <title>p07</title>
    <description>Created with Sketch.</description>
    <defs></defs>
    <g id="Page-1" stroke="none" stroke-width="1" fill="none" fill-rule="evenodd" sketch:type="MSPage">
        <g sketch:type="MSLayerGroup" transform="translate(-12.000000, -44.000000)" fill="#000000">
            <path d="M70,74.5 L70,163.5 L35,119 L70,74.5 L70,74.5 Z" id="Triangle-1" fill-opacity="0.1" sketch:type="MSShapeGroup"></path>
            <path d="M105,74.5 L105,163.5 L70,119 L105,74.5 L105,74.5 Z" id="Triangle-2" fill-opacity="0.150000006" sketch:type="MSShapeGroup" transform="translate(87.500000, 119.000000) scale(-1, 1) translate(-87.500000, -119.000000) "></path>
            <path d="M70,44.5 L70,133.5 L35,89 L70,44.5 L70,44.5 Z" id="Triangle-1" fill-opacity="0.1" sketch:type="MSShapeGroup"></path>
            <path d="M105,44.5 L105,133.5 L70,89 L105,44.5 L105,44.5 Z" id="Triangle-2" fill-opacity="0.150000006" sketch:type="MSShapeGroup" transform="translate(87.500000, 89.000000) scale(-1, 1) translate(-87.500000, -89.000000) "></path>
            <path d="M47,59.5 L47,148.5 L12,104 L47,59.5 L47,59.5 Z" id="Triangle-2" fill-opacity="0.150000006" sketch:type="MSShapeGroup" transform="translate(29.500000, 104.000000) scale(-1, 1) translate(-29.500000, -104.000000) "></path>
            <path d="M35,0 L35,89 L0,44.5 L35,0 L35,0 Z" id="Triangle-1" fill-opacity="0.1" sketch:type="MSShapeGroup"></path>
            <path d="M70,0 L70,89 L35,44.5 L70,0 L70,0 Z" id="Triangle-2" fill-opacity="0.150000006" sketch:type="MSShapeGroup" transform="translate(52.500000, 44.500000) scale(-1, 1) translate(-52.500000, -44.500000) "></path>
            <path d="M35,119 L35,208 L0,163.5 L35,119 L35,119 Z" id="Triangle-1" fill-opacity="0.1" sketch:type="MSShapeGroup"></path>
            <path d="M70,119 L70,208 L35,163.5 L70,119 L70,119 Z" id="Triangle-2" fill-opacity="0.150000006" sketch:type="MSShapeGroup" transform="translate(52.500000, 163.500000) scale(-1, 1) translate(-52.500000, -163.500000) "></path>
            <path d="M105,119 L105,208 L70,163.5 L105,119 L105,119 Z" id="Triangle-1" fill-opacity="0.1" sketch:type="MSShapeGroup"></path>
            <path d="M140,119 L140,208 L105,163.5 L140,119 L140,119 Z" id="Triangle-2" fill-opacity="0.150000006" sketch:type="MSShapeGroup" transform="translate(122.500000, 163.500000) scale(-1, 1) translate(-122.500000, -163.500000) "></path>
            <path d="M105,0 L105,89 L70,44.5 L105,0 L105,0 Z" id="Triangle-1" fill-opacity="0.1" sketch:type="MSShapeGroup"></path>
            <path d="M140,0 L140,89 L105,44.5 L140,0 L140,0 Z" id="Triangle-2" fill-opacity="0.150000006" sketch:type="MSShapeGroup" transform="translate(122.500000, 44.500000) scale(-1, 1) translate(-122.500000, -44.500000) "></path>
            <path d="M128,59.5 L128,148.5 L93,104 L128,59.5 L128,59.5 Z" id="Triangle-1" fill-opacity="0.1" sketch:type="MSShapeGroup"></path>
        </g>
    </g>
</svg>