<svg width="115" height="120" viewBox="0 0 115 120" xmlns="http://www.w3.org/2000/svg"><g fill="#000" fill-rule="evenodd"><path d="M58 30.5v89l-35-44.5 35-44.5z" id="Triangle-1" fill-opacity=".1"/><path d="M58 30.5v89l35-44.5-35-44.5z" id="Triangle-2" fill-opacity=".15"/><path d="M58 .5v89l-35-44.5 35-44.5z" id="Triangle-1" fill-opacity=".1"/><path d="M58 .5v89l35-44.5-35-44.5zM0 15.5v89l35-44.5-35-44.5z" id="Triangle-2" fill-opacity=".15"/><path d="M23-44v89l-35-44.5 35-44.5z" id="Triangle-1" fill-opacity=".1"/><path d="M23-44v89l35-44.5-35-44.5z" id="Triangle-2" fill-opacity=".15"/><path d="M23 75v89l-35-44.5 35-44.5z" id="Triangle-1" fill-opacity=".1"/><path d="M23 75v89l35-44.5-35-44.5z" id="Triangle-2" fill-opacity=".15"/><path d="M93 75v89l-35-44.5 35-44.5z" id="Triangle-1" fill-opacity=".1"/><path d="M93 75v89l35-44.5-35-44.5z" id="Triangle-2" fill-opacity=".15"/><path d="M93-44v89l-35-44.5 35-44.5z" id="Triangle-1" fill-opacity=".1"/><path d="M93-44v89l35-44.5-35-44.5z" fill-opacity=".15"/><path d="M116 15.5v89l-35-44.5 35-44.5z" fill-opacity=".1"/></g></svg>