<svg width="50" height="50" viewBox="0 0 50 50" xmlns="http://www.w3.org/2000/svg"><g fill="#000" fill-opacity=".1" fill-rule="evenodd"><path id="Rectangle-19" d="M25 0h22.059v4.412h-22.059z"/><path id="Rectangle-21" d="M25 8.824h22.059v4.412h-22.059z"/><path id="Rectangle-23" d="M25 17.647h22.059v4.412h-22.059z"/><path d="M0 25h22.059v4.412h-22.059z"/><path d="M0 33.824h22.059v4.412h-22.059z"/><path d="M0 42.647h22.059v4.412h-22.059z"/><path id="Rectangle-20" d="M22.058 0v22.059h-4.412v-22.059z"/><path id="Rectangle-22" d="M13.234 0v22.059h-4.412v-22.059z"/><path id="Rectangle-24" d="M4.411-.001v22.059h-4.412v-22.059z"/><path d="M47.058 25v22.059h-4.412v-22.059z"/><path d="M38.234 25v22.059h-4.412v-22.059z"/><path d="M29.411 24.999v22.059h-4.412v-22.059z"/></g></svg>
